<svg version="1.2" xmlns="http://www.w3.org/2000/svg" viewBox="0 0 1551 432" width="1551"
	height="432">
	<title>Dassault Aviation</title>
	<path fill-rule="evenodd" fill="#ffffff"
		d="m473.9 430.5l-33.4-154.5h-38.2l-102.8 154.5h39.6l74.5-113.2 10.9 52.5h-29.7l-20.2 30.6h56.7l6.3 30.1zm384.4 0l-33.4-154.5h-38.3l-102.7 154.5h39.5l74.6-113.2 10.9 52.5h-29.7l-20.2 30.6h56.7l6.3 30.1z" />
	<path fill-rule="evenodd" fill="#ffffff"
		d="m670.1 276l-45.9 154.4h38.6l45.8-154.4zm367.7 0l-45.8 154.4h38.5l45.8-154.4zm335.9 101.5l-44.5-101.5h-38.5l-45.8 154.4h38.5l30.4-102 44.2 102h38.5l45.9-154.4h-38.6z" />
	<path fill-rule="evenodd" fill="#ffffff"
		d="m1015.6 276h-140.7l-9.4 31.8h51.3l-36.3 122.6h38.5l36.2-122.6h50.9zm-503.8 0h-36.3l33.4 154.5h38.3l102.7-154.5h-39.6l-74.5 113.2z" />
	<path fill-rule="evenodd" fill="#ffffff"
		d="m1241.8 353.4c-8.7 39.6-41.7 78.5-94.5 78.5-51.1 0-80.6-31.5-68.4-78.8 12.4-48 47.7-78.6 92.9-78.6 52.7 0 81.7 25.5 70 78.9zm-69-48.3c-24.6 0-49 19.3-56.5 48-7.4 28.8 0.9 48.2 31.5 48.2 28.9 0 50.2-24.1 56.5-48 8.4-32.1-2.1-48.2-31.5-48.2zm-92.7-62.4l-6.2-30h-62.2l20.9-31.7h34.2l-11.9-57.6-78.6 119.3h-39.4l106.1-159.4h38.8l34.5 159.4zm-460.9 0l-6.3-30h-62.1l20.8-31.7h34.3l-12-57.6-78.6 119.3h-39.3l106-159.4h38.9l34.5 159.4zm792.7 0l37.9-127.8h-53.5l9.3-31.6h145.1l-9.4 31.6h-53.1l-37.8 127.8z" />
	<path fill="#ffffff"
		d="m866.4 245.2c-13.1 0-24.7-2.7-34.7-8.1-10-5.5-16.7-13.3-19.7-23.3l-0.2-0.8 29.9-15.6 0.3 0.8c2 4.8 5.8 9 11.3 12.6 5.5 3.6 11.8 5.4 18.7 5.4q10.8 0 18.9-4.8c5.3-3.2 8.4-7.3 9.5-12.6 1-4.6-0.4-8.1-4.4-10.8-4.1-2.8-11.2-6.1-20.9-9.8-10.1-3.9-18.4-7.6-24.7-11-6.5-3.5-11.6-8.7-15.3-15.3-3.8-6.7-4.6-15.4-2.4-25.7 1.9-9.3 6.4-17.5 13.3-24.4 6.9-6.9 15.3-12.1 25.1-15.7 9.8-3.5 20.2-5.3 30.8-5.3 13.9 0 25.7 2.5 34.9 7.6 9.3 5.2 15.5 12.9 18.4 22.9l0.2 0.7-29.9 15.6-0.3-0.8c-1.9-4.6-5.4-8.6-10.4-12-5-3.3-11-5-17.8-5-6.8 0-12.7 1.6-17.7 4.7-5 3.1-7.9 7-9 12-0.7 3.4 0 6.3 2 8.8 2.1 2.6 5 4.8 8.6 6.5 3.6 1.8 9 4 16.1 6.7 9.8 3.6 17.9 7.1 24 10.5 6.3 3.4 11.3 8.3 14.9 14.6 3.7 6.4 4.5 14.5 2.5 24-3.1 14.6-11.3 26.4-24.4 34.9-13 8.5-29 12.7-47.6 12.7z" />
	<path fill-rule="evenodd" fill="#ffffff"
		d="m723.1 245.2c-13 0-24.7-2.7-34.6-8.1-10.1-5.5-16.7-13.3-19.8-23.3l-0.2-0.8 29.9-15.6 0.3 0.8c2 4.8 5.8 9 11.3 12.6 5.5 3.6 11.8 5.4 18.8 5.4 7.1 0 13.4-1.6 18.8-4.8 5.3-3.2 8.5-7.3 9.6-12.6 0.9-4.6-0.5-8.1-4.4-10.8-4.2-2.8-11.3-6.1-21-9.8-10.1-3.9-18.4-7.6-24.7-11-6.4-3.5-11.6-8.7-15.3-15.3-3.8-6.7-4.6-15.4-2.4-25.7 2-9.3 6.4-17.5 13.3-24.4 6.9-6.9 15.4-12.1 25.2-15.7 9.8-3.5 20.1-5.3 30.7-5.3 13.9 0 25.7 2.5 34.9 7.6 9.4 5.2 15.5 12.9 18.4 22.9l0.2 0.7-29.9 15.6-0.3-0.8c-1.9-4.6-5.3-8.6-10.3-12-5.1-3.3-11.1-5-17.8-5-6.8 0-12.8 1.6-17.8 4.7-5 3.1-7.9 7-8.9 12-0.8 3.4-0.1 6.3 1.9 8.8 2.1 2.6 5 4.8 8.6 6.5 3.6 1.8 9 4 16.1 6.7 9.8 3.6 17.9 7.1 24 10.5 6.3 3.4 11.3 8.3 14.9 14.6 3.7 6.4 4.6 14.5 2.5 24-3 14.6-11.2 26.4-24.3 34.9-13 8.5-29.1 12.7-47.7 12.7zm-240.1-143c9.7 11.9 16.5 31.1 9.2 60.8-5.5 22.6-24.1 79.7-97.4 79.7h-73.3l47.3-159.4h66.9c25 0 37.9 7.5 47.3 18.9zm-58.8 12.8h-26.3l-28.5 95.8h29.3c28.8 0 50-24 56.2-47.8 8.6-33-1.4-48-30.7-48zm901 96h64.5l-9.4 31.7h-103l47.4-159.4h38.3z" />
	<path fill-rule="evenodd" fill="#ffffff"
		d="m1229.6 181.2c-2.8 10.4-6.8 17.8-12.8 23.2-6.2 5.7-14.6 8.6-24.9 8.6-9.9 0-16.5-2.8-19.7-8.2-3.2-5.5-3.6-13.1-1.2-22.7l29.6-98.9h-38.5l-29.2 97.5c-5.6 21.1-3.4 37.2 6.5 47.8 9.8 10.5 25 15.8 45.1 15.8 19.9 0 37.6-5.2 52.9-15.5 14.1-9.6 23.8-24.6 30.5-47.2l29.2-98.4h-38.4zm-963.3-181.1c-126.3 207.2-266 314.4-266 314.4 38.2 25.3 53 57.3 53 57.3l18.5-14.5c-4.5-8.5-16.6-27.3-35.9-42.8 37.6-33.4 118.5-112.2 201.2-231.2-7.8 66.5-10.7 156.1 2.9 227.2-31.9 12.1-113.9 56.4-143.6 120h28.4c46-80.5 139.5-105.6 139.5-105.6-28.7-167.3 2-324.8 2-324.8z" />
	<path fill-rule="evenodd" fill="#ffffff"
		d="m162.7 241.2c4-3.9 15.2-5.4 20.9 0 6.5 6 4.9 12.9 0.5 17.9-6.4 7.3-30.2 24.2-36.4 28h-4.2c-1.5-2-10.5-16.1-12.4-22.8-1.9-7.1-1.6-16 6.3-22.3 7.9-6.5 16.8-6.2 25.3-0.8z" />
	<path fill-rule="evenodd" fill="#ffffff"
		d="m201.6 296.8c6.8-3.1 12.4-11.5 9.4-19.6-2.9-7.9-11.9-8-18.2-5.7-11.5 4.2-35.5 19.4-39.5 22.4l-1.5 3.9c2.7 4 11.4 14.4 17.2 18.9 5.8 4.5 14.3 7.1 22.9 2.3 8.9-4.9 11.7-14.3 9.7-22.2z" />
	<path fill-rule="evenodd" fill="#ffffff"
		d="m126.1 349.9c-4.1 3.9-15.3 5.4-21.1 0-6.5-6-4.8-12.8-0.4-17.8 6.4-7.2 30.3-24 36.6-27.8h4.2c1.5 1.9 10.5 16 12.4 22.6 2 7.1 1.6 15.9-6.3 22.3-7.9 6.4-16.9 6.1-25.4 0.7z" />
	<path fill-rule="evenodd" fill="#ffffff"
		d="m87.3 294.3c-6.7 3.1-12.4 11.4-9.4 19.6 2.9 7.9 12 8 18.2 5.7 11.5-4.2 35.5-19.4 39.6-22.4l1.5-4c-2.8-4-11.4-14.3-17.2-18.8-5.8-4.5-14.4-7.2-22.9-2.4-8.9 5-11.8 14.3-9.8 22.3z" />
</svg>