<?xml version="1.0" encoding="UTF-8"?>
<svg width="24" height="24" viewBox="0 0 24 24" xmlns="http://www.w3.org/2000/svg">
    <title>Vanio Informatika</title>
    <path id="Rounded-Rectangle" fill="#65a0dc" fill-rule="evenodd" stroke="none" d="M 1.429688 19.570313 C 1.429688 21.227167 2.772833 22.570313 4.429688 22.570313 L 19.546875 22.570313 C 21.20373 22.570313 22.546875 21.227167 22.546875 19.570313 L 22.546875 4.453125 C 22.546875 2.79627 21.20373 1.453125 19.546875 1.453125 L 4.429688 1.453125 C 2.772833 1.453125 1.429688 2.79627 1.429688 4.453125 Z"/>
    <path id="V" fill="#ffffff" fill-rule="evenodd" stroke="none" d="M 10.897531 18.219238 C 10.00238 16.285711 9.140064 14.262699 8.310555 12.15014 C 7.481049 10.037584 6.708246 7.925056 5.992125 5.8125 L 8.480633 5.8125 C 8.767082 6.647974 9.059494 7.501339 9.357878 8.372619 C 9.656262 9.243902 9.95464 10.100252 10.253026 10.941691 C 10.55141 11.783134 10.84979 12.597711 11.148173 13.385444 C 11.446556 14.173177 11.738968 14.895257 12.025415 15.551702 C 12.299932 14.895257 12.586373 14.176161 12.884759 13.394396 C 13.183141 12.612629 13.484505 11.798057 13.788858 10.950645 C 14.093207 10.103234 14.394571 9.243902 14.692957 8.372619 C 14.991339 7.501339 15.277784 6.647974 15.552297 5.8125 L 17.969194 5.8125 C 17.241138 7.925056 16.465349 10.037584 15.641811 12.15014 C 14.818274 14.262699 13.958941 16.285711 13.063788 18.219238 Z"/>
</svg>
