<svg xmlns="http://www.w3.org/2000/svg" width="1024" height="1024"><path fill="currentColor" fill-rule="evenodd" d="M61 835c0 70.692 57.308 128 128 128h645c70.692 0 128-57.308 128-128V190c0-70.692-57.308-128-128-128H189c-70.692 0-128 57.308-128 128Zm403.961-57.646q-57.29-123.745-110.377-258.948Q301.495 383.203 255.664 248H361.84q18.332 53.47 37.43 109.232a10719 10719 0 0 0 38.192 109.614q19.096 53.851 38.193 104.266t37.43 92.427q17.568-42.012 36.665-92.045 19.095-50.032 38.575-104.266a7846 7846 0 0 0 38.574-109.996A9231 9231 0 0 0 663.565 248h103.12q-46.594 135.203-99.301 270.406T557.388 777.354Z"/></svg>