<?xml version="1.0" encoding="UTF-8"?>
<svg xmlns="http://www.w3.org/2000/svg" viewBox="0 0 1024 1024">
  <title>JACO</title>
  <rect fill="#000" x="0" y="0" width="1024" height="1024"/>
  <path fill="#fff" d="M309.2,156.8c-84.2,0-152.5,68.2-152.5,152.5v282c0,84.2,68.2,152.5,152.5,152.5h59.5v110.6l191-110.6h0s.7,0,.7,0V156.8h-251.2ZM358.2,433.1c-42.8,0-77.4-34.7-77.4-77.4s34.7-77.5,77.4-77.5,77.5,34.7,77.5,77.5-34.7,77.4-77.5,77.4Z"/>
  <path fill="#fff" d="M867.2,309.2v203.1h-282.9V156.8h130.5c84.2,0,152.5,68.2,152.5,152.5Z"/>
  <path fill="#fff" d="M759.8,536.2v55c0,84.2-68.2,152.5-152.5,152.5h-23v-207.5h175.5Z"/>
</svg>
