<?xml version="1.0" encoding="UTF-8"?>
<svg id="Layer_2" data-name="Layer 2" xmlns="http://www.w3.org/2000/svg" viewBox="0 0 929.72 115.03">
  <defs>
    <style>
      .cls-1 {
        fill: #4C4A4D;
        stroke-width: 0px;
      }
    </style>
  </defs>
  <g id="Layer_1-2" data-name="Layer 1">
    <path id="Regular_Logotype" class="cls-1" d="M0,91.54l14.91-10.09c7.53,9.94,17.16,15.51,29.21,15.51,8.43,0,16.37-2.6,22.13-8.43,5.38-5.46,8.88-13.85,8.88-26.05V2.41h18.37v62.48c0,16.11-5.38,27.89-14,36.44s-21.83,13.7-35.68,13.7c-17.62,0-34.18-8.43-43.81-23.49ZM151.31,57.51c0-31.62,25.9-57.51,57.66-57.51,15.66,0,30.71,6.32,41.4,17.01,9.94,9.94,16.11,23.49,16.11,40.65v54.95h-18.37v-16.71c-7.68,10.69-23.49,19.12-39.75,19.12-31.77,0-57.06-25.29-57.06-57.51ZM209.28,96.96c21.53,0,38.99-16.86,38.99-39.45s-17.46-39.45-38.99-39.45-39.15,16.86-39.15,39.45,17.62,39.45,39.15,39.45ZM324.31,57.51c0-31.92,25.14-57.51,57.81-57.51,21.23,0,37.94,8.73,48.18,23.64l-15.21,10.09c-7.68-10.24-19.12-15.66-32.97-15.66-21.08,0-38.99,14.91-38.99,39.45,0,22.73,16.26,39.45,39.3,39.45,19.42,0,34.33-11.89,38.09-29.36h-24.84v-17.62h43.51c.3,2.26.6,4.82.6,7.53,0,31.47-25.14,57.51-57.66,57.51s-57.81-25.44-57.81-57.51ZM510.71,99.37c-8.11-8.6-13.1-20.33-13.1-34.03V2.41h18.37v60.52c0,11.14,3.49,18.79,8.88,24.39,6.21,6.44,14.91,9.64,23.49,9.64s17.28-3.19,23.49-9.64c5.39-5.6,8.88-13.25,8.88-24.39V2.41h18.37v62.93c0,13.7-4.99,25.43-13.1,34.03-9.36,9.92-22.88,15.66-37.64,15.66s-28.28-5.74-37.64-15.66ZM656.9,57.51c0-31.62,25.9-57.51,57.66-57.51,15.66,0,30.71,6.32,41.4,17.01,9.94,9.94,16.11,23.49,16.11,40.65v54.95h-18.37v-16.71c-7.68,10.69-23.49,19.12-39.75,19.12-31.77,0-57.06-25.29-57.06-57.51ZM714.87,96.96c21.53,0,38.99-16.86,38.99-39.45s-17.46-39.45-38.99-39.45-39.15,16.86-39.15,39.45,17.62,39.45,39.15,39.45ZM850.22,13.7c9-8.92,21.83-13.7,35.68-13.7,17.62,0,34.18,8.43,43.81,23.49l-14.91,10.09c-7.53-9.94-17.16-15.51-29.21-15.51-8.43,0-16.37,2.6-22.13,8.43-5.39,5.46-8.88,13.85-8.88,26.05v60.07h-18.37v-62.48c0-16.11,5.38-27.89,14-36.43Z"/>
  </g>
</svg>
