<svg version="1.2" xmlns="http://www.w3.org/2000/svg" viewBox="0 0 1515 1477" width="1515" height="1477">
	<title>Nordea</title>
	<g id="Layer">
		<path id="Layer" fill-rule="evenodd" fill="#ffffff" d="m57.1 832.7q0 0 0 0 0 0 0 0zm-21.6-4.3c-6.9-2.9-13.2-7-18.4-12.3-5.3-5.3-9.5-11.5-12.3-18.4-2.9-6.9-4.4-14.3-4.4-21.7v-76c0-7.4 1.5-14.8 4.3-21.7 2.9-6.9 7.1-13.1 12.3-18.4 5.3-5.2 11.6-9.4 18.4-12.3 6.9-2.8 14.3-4.3 21.7-4.3 7.5 0 14.9 1.4 21.7 4.3 6.9 2.9 13.2 7 18.4 12.3 5.3 5.3 9.5 11.5 12.3 18.4 2.9 6.9 4.4 14.3 4.4 21.7v76c0 31.7-25.5 56.7-56.7 56.7-7.5 0-14.9-1.4-21.7-4.3zm249.1 14.2c-12.4 0-24.7-2.5-36.2-7.2-11.5-4.8-22-11.8-30.8-20.6-8.8-8.8-15.7-19.2-20.5-30.7-4.8-11.5-7.2-23.8-7.2-36.2v-283.7c0-25.1 10-49.2 27.7-67 17.8-17.7 41.9-27.7 67.1-27.7 25.1 0 49.2 10 67 27.7 17.7 17.8 27.7 41.9 27.7 67v283.7c-0.5 52-42.7 94.7-94.7 94.7zm307.1 217.6c-15.5 0-30.8-3.1-45.1-9-14.4-6-27.4-14.7-38.3-25.7-11-10.9-19.7-23.9-25.7-38.3-5.9-14.3-9-29.6-9-45.1v-822.9c0-15.5 3.1-30.8 9-45.2 6-14.3 14.7-27.3 25.6-38.3 11-10.9 24-19.6 38.4-25.6 14.3-5.9 29.6-9 45.1-9.1 15.6 0.1 30.9 3.2 45.2 9.1 14.3 6 27.4 14.7 38.3 25.6 11 11 19.7 24 25.6 38.3 6 14.3 9.1 29.7 9.1 45.2v822.9c0 15.5-3 30.9-9 45.2-5.9 14.3-14.6 27.4-25.6 38.3-10.9 11-24 19.7-38.3 25.7-14.4 5.9-29.7 8.9-45.3 8.9zm331.1 415.9c-15.5 0-30.8-3.1-45.2-9.1-14.3-5.9-27.3-14.6-38.2-25.6-11-11-19.7-24-25.6-38.3-6-14.3-9.1-29.6-9.1-45.1v-822.9c0-15.5 3.1-30.9 9.1-45.2 5.9-14.3 14.6-27.3 25.6-38.3 10.9-11 24-19.7 38.3-25.6 14.3-6 29.6-9 45.2-9.1 15.5 0.1 30.8 3.1 45.1 9.1 14.4 5.9 27.4 14.6 38.3 25.6 11 11 19.7 24 25.7 38.3 5.9 14.3 9 29.7 9 45.2v822.8c0 15.5-3 30.9-8.9 45.2-6 14.4-14.7 27.4-25.6 38.4-11 11-24 19.7-38.4 25.6-14.3 6-29.7 9-45.3 9zm307.7-369c-12.4 0-24.8-2.5-36.2-7.2-11.5-4.8-22-11.8-30.8-20.6-8.8-8.8-15.8-19.2-20.5-30.7-4.8-11.5-7.3-23.8-7.3-36.3v-283.6c0-25.2 10-49.3 27.8-67 17.8-17.8 41.9-27.8 67-27.8 25.1 0 49.3 10 67 27.8 17.8 17.7 27.8 41.8 27.8 67v283.6c-0.5 52.6-42.7 94.8-94.8 94.8zm227-274.3c-7.4 0-14.8-1.5-21.7-4.4-6.9-2.8-13.1-7-18.4-12.3-5.3-5.2-9.4-11.5-12.3-18.4-2.8-6.8-4.3-14.2-4.3-21.7v-75.9c0-7.5 1.5-14.9 4.3-21.7 2.9-6.9 7-13.2 12.3-18.4 5.3-5.3 11.5-9.5 18.4-12.4 6.9-2.8 14.3-4.3 21.7-4.3 7.5 0 14.8 1.5 21.7 4.4 6.9 2.8 13.1 7 18.4 12.3 5.3 5.2 9.5 11.5 12.3 18.4 2.9 6.8 4.3 14.2 4.3 21.7v75.9c0 31.8-25.4 56.8-56.7 56.8z"/>
	</g>
</svg>