<svg version="1.2" xmlns="http://www.w3.org/2000/svg" viewBox="0 0 1525 320" width="1525" height="320">
	<title>Nordea</title>
	<g id="Lager_1">
		<path id="Layer" fill-rule="evenodd" fill="#ffffff" d="m1524.8 196.2v118.8h-48.3v-36.9c-15.7 26.8-50.4 40.3-76.2 40.3-71.9 0-129.1-60.5-124.6-133.4 4.5-61.6 53.9-112 115.6-116.5 72.9-5.6 135.7 49.3 133.5 127.7zm-51.6-7.8c-2.3-38.1-33.7-68.4-71.8-68.4-42.7 0-76.3 37-71.8 80.7 4.5 32.5 30.3 58.3 62.8 62.8 42.6 5.6 78.5-25.8 80.8-67.3zm-218.8-7.8l-187.4 51.5c12.4 22.5 43.8 43.8 77.5 37 23.5-4.5 44.8-21.3 53.8-41.4l48.3 14.5c-19.1 48.2-67.4 77.4-116.7 77.4-70.7 0-125.7-57.2-125.7-124.4 0-74 56.1-124.4 122.3-126.7 79.7-2.2 122.3 62.8 127.9 112.1zm-61.7-30.3c-14.6-26.9-48.2-45.9-86.4-31.3-33.6 12.3-49.4 42.5-49.4 68.3zm-547.4 46c0 44.8 0 43.7 0 117.6h-55v-238.7h53.8v28.1c7.9-12.4 23.6-35.9 70.7-35.9v51.5c-38.1 2.3-69.5 23.6-69.5 77.4zm-425.2-170.4h54.9v289.2h-50.4l-166.1-193.9v192.7h-58.3v-288h56.1l163.8 192.8zm750.5 164.7c0 1.1 0 1.1 0 2.3 0 1.1 0 119.9 0 121h-48.2v-31.4c-12.4 23.6-49.4 35.9-76.3 35.9-71.8 0-129-60.5-124.5-133.4 4.4-61.6 53.8-112 115.5-116.5 32.5-3.4 70.7 10.1 83 25.7v-94.1h51.6zm-52.7-2.2c-2.2-38.1-33.7-68.4-71.8-68.4-42.6 0-76.3 37-71.8 80.7 4.5 32.5 30.3 58.3 62.8 62.8 42.7 5.6 78.6-25.8 80.8-67.3 0 0 0-7.8 0-7.8zm-484.7 130c-69.4 0-125.6-56.1-125.6-125.6 0-69.4 56.2-125.5 125.6-125.5 69.5 0 125.7 56.1 125.7 125.5 0 69.5-56.2 125.6-125.7 125.6zm71.8-125.6c0-39.6-32-71.7-71.8-71.7-39.7 0-71.8 32.1-71.8 71.7 0 39.7 32.1 71.8 71.8 71.8 39.8 0 71.8-32.1 71.8-71.8z"/>
	</g>
</svg>